<svg width="300" height="300" viewBox="0 0 26 26" class="capacitor-logo" xmlns="http://www.w3.org/2000/svg">
  <path d="M3.73712 5.07324L0.0291182 8.78592L5.74746 14.5214L0 20.2861L3.6964 24.0004L9.45544 18.2341L15.1833 23.9592L18.8913 20.2465L3.73712 5.07324Z" fill="#53B9FF"></path>
  <path d="M13.1735 14.5215L9.45557 18.2341L15.1834 23.9593L18.8914 20.2466L13.1735 14.5215Z" fill="#119EFF"></path>
  <path d="M13.1735 14.5215L9.45557 18.2341L10.8868 19.6574L13.1735 14.5215Z" fill="black" fill-opacity="0.2"></path>
  <path fill-rule="evenodd" clip-rule="evenodd" d="M18.2409 9.46736L24 3.70106L20.2904 0L14.533 5.75471L8.80468 0.0291556L5.09668 3.74184L20.2509 18.9151L23.9589 15.2024L18.2409 9.46736Z" fill="#53B9FF"></path>
  <path d="M10.815 9.46751L14.533 5.75485L8.80468 0.0292969L5.09668 3.74198L10.815 9.46751Z" fill="#119EFF"></path>
  <path d="M10.8149 9.46738L14.5329 5.75473L13.1013 4.33105L10.8149 9.46738Z" fill="black" fill-opacity="0.2"></path>
</svg>
